<mxfile host="app.diagrams.net" modified="2024-06-06T04:17:48.341Z" agent="Mozilla/5.0 (Windows NT 10.0; Win64; x64) AppleWebKit/537.36 (KHTML, like Gecko) Chrome/125.0.0.0 Safari/537.36 Edg/125.0.0.0" etag="ZNCC18OlvhnjWlp2A82X" version="24.4.14" type="device">
  <diagram name="Page-1" id="-zIk4zkahtgBftbjadhh">
    <mxGraphModel dx="1224" dy="1143" grid="1" gridSize="10" guides="1" tooltips="1" connect="1" arrows="1" fold="1" page="1" pageScale="1" pageWidth="827" pageHeight="1169" math="0" shadow="0">
      <root>
        <mxCell id="0" />
        <mxCell id="1" parent="0" />
        <mxCell id="hXdqMKXLJl7zaJcx0H7H-4" style="edgeStyle=orthogonalEdgeStyle;rounded=0;orthogonalLoop=1;jettySize=auto;html=1;" parent="1" source="hXdqMKXLJl7zaJcx0H7H-2" target="hXdqMKXLJl7zaJcx0H7H-3" edge="1">
          <mxGeometry relative="1" as="geometry" />
        </mxCell>
        <mxCell id="hXdqMKXLJl7zaJcx0H7H-2" value="Display prompt&amp;nbsp;" style="ellipse;whiteSpace=wrap;html=1;" parent="1" vertex="1">
          <mxGeometry x="280" y="80" width="180" height="60" as="geometry" />
        </mxCell>
        <mxCell id="hXdqMKXLJl7zaJcx0H7H-6" style="edgeStyle=orthogonalEdgeStyle;rounded=0;orthogonalLoop=1;jettySize=auto;html=1;" parent="1" source="hXdqMKXLJl7zaJcx0H7H-3" target="hXdqMKXLJl7zaJcx0H7H-5" edge="1">
          <mxGeometry relative="1" as="geometry" />
        </mxCell>
        <mxCell id="hXdqMKXLJl7zaJcx0H7H-3" value="Enter Guess" style="shape=parallelogram;perimeter=parallelogramPerimeter;whiteSpace=wrap;html=1;fixedSize=1;" parent="1" vertex="1">
          <mxGeometry x="280" y="230" width="180" height="70" as="geometry" />
        </mxCell>
        <mxCell id="hXdqMKXLJl7zaJcx0H7H-9" value="True" style="edgeStyle=orthogonalEdgeStyle;rounded=0;orthogonalLoop=1;jettySize=auto;html=1;" parent="1" source="hXdqMKXLJl7zaJcx0H7H-5" target="hXdqMKXLJl7zaJcx0H7H-8" edge="1">
          <mxGeometry x="0.2273" relative="1" as="geometry">
            <mxPoint as="offset" />
          </mxGeometry>
        </mxCell>
        <mxCell id="hXdqMKXLJl7zaJcx0H7H-13" style="edgeStyle=orthogonalEdgeStyle;rounded=0;orthogonalLoop=1;jettySize=auto;html=1;entryX=0;entryY=0.5;entryDx=0;entryDy=0;" parent="1" source="hXdqMKXLJl7zaJcx0H7H-5" target="hXdqMKXLJl7zaJcx0H7H-12" edge="1">
          <mxGeometry relative="1" as="geometry" />
        </mxCell>
        <mxCell id="hXdqMKXLJl7zaJcx0H7H-14" value="False" style="edgeLabel;html=1;align=center;verticalAlign=middle;resizable=0;points=[];" parent="hXdqMKXLJl7zaJcx0H7H-13" vertex="1" connectable="0">
          <mxGeometry x="0.0411" y="-2" relative="1" as="geometry">
            <mxPoint as="offset" />
          </mxGeometry>
        </mxCell>
        <mxCell id="hXdqMKXLJl7zaJcx0H7H-5" value="If target_word [i] == guess[i]" style="rhombus;whiteSpace=wrap;html=1;" parent="1" vertex="1">
          <mxGeometry x="295" y="360" width="150" height="150" as="geometry" />
        </mxCell>
        <mxCell id="hXdqMKXLJl7zaJcx0H7H-23" style="edgeStyle=orthogonalEdgeStyle;rounded=0;orthogonalLoop=1;jettySize=auto;html=1;" parent="1" source="hXdqMKXLJl7zaJcx0H7H-8" target="hXdqMKXLJl7zaJcx0H7H-22" edge="1">
          <mxGeometry relative="1" as="geometry" />
        </mxCell>
        <mxCell id="hXdqMKXLJl7zaJcx0H7H-8" value="result [i] = green" style="shape=parallelogram;perimeter=parallelogramPerimeter;whiteSpace=wrap;html=1;fixedSize=1;" parent="1" vertex="1">
          <mxGeometry x="30" y="700" width="180" height="70" as="geometry" />
        </mxCell>
        <mxCell id="hXdqMKXLJl7zaJcx0H7H-15" style="edgeStyle=orthogonalEdgeStyle;rounded=0;orthogonalLoop=1;jettySize=auto;html=1;entryX=0.542;entryY=-0.022;entryDx=0;entryDy=0;entryPerimeter=0;" parent="1" source="hXdqMKXLJl7zaJcx0H7H-12" target="hXdqMKXLJl7zaJcx0H7H-17" edge="1">
          <mxGeometry relative="1" as="geometry">
            <mxPoint x="610" y="580" as="targetPoint" />
          </mxGeometry>
        </mxCell>
        <mxCell id="hXdqMKXLJl7zaJcx0H7H-16" value="True" style="edgeLabel;html=1;align=center;verticalAlign=middle;resizable=0;points=[];" parent="hXdqMKXLJl7zaJcx0H7H-15" vertex="1" connectable="0">
          <mxGeometry x="0.0571" y="-3" relative="1" as="geometry">
            <mxPoint as="offset" />
          </mxGeometry>
        </mxCell>
        <mxCell id="hXdqMKXLJl7zaJcx0H7H-12" value="elif char in target_word" style="rhombus;whiteSpace=wrap;html=1;" parent="1" vertex="1">
          <mxGeometry x="620" y="360" width="150" height="150" as="geometry" />
        </mxCell>
        <mxCell id="hXdqMKXLJl7zaJcx0H7H-26" style="edgeStyle=orthogonalEdgeStyle;rounded=0;orthogonalLoop=1;jettySize=auto;html=1;" parent="1" source="hXdqMKXLJl7zaJcx0H7H-17" target="hXdqMKXLJl7zaJcx0H7H-22" edge="1">
          <mxGeometry relative="1" as="geometry" />
        </mxCell>
        <mxCell id="hXdqMKXLJl7zaJcx0H7H-17" value="Result = Yellow + char + RESET (Yellow letter)" style="shape=parallelogram;perimeter=parallelogramPerimeter;whiteSpace=wrap;html=1;fixedSize=1;" parent="1" vertex="1">
          <mxGeometry x="460" y="630" width="210" height="70" as="geometry" />
        </mxCell>
        <mxCell id="hXdqMKXLJl7zaJcx0H7H-27" style="edgeStyle=orthogonalEdgeStyle;rounded=0;orthogonalLoop=1;jettySize=auto;html=1;" parent="1" source="hXdqMKXLJl7zaJcx0H7H-19" target="hXdqMKXLJl7zaJcx0H7H-22" edge="1">
          <mxGeometry relative="1" as="geometry">
            <Array as="points">
              <mxPoint x="785" y="750" />
              <mxPoint x="423" y="750" />
            </Array>
          </mxGeometry>
        </mxCell>
        <mxCell id="hXdqMKXLJl7zaJcx0H7H-19" value="Result += char&lt;div&gt;(No change)&lt;/div&gt;" style="shape=parallelogram;perimeter=parallelogramPerimeter;whiteSpace=wrap;html=1;fixedSize=1;" parent="1" vertex="1">
          <mxGeometry x="680" y="630" width="210" height="70" as="geometry" />
        </mxCell>
        <mxCell id="hXdqMKXLJl7zaJcx0H7H-20" style="edgeStyle=orthogonalEdgeStyle;rounded=0;orthogonalLoop=1;jettySize=auto;html=1;entryX=0.508;entryY=0.038;entryDx=0;entryDy=0;entryPerimeter=0;" parent="1" source="hXdqMKXLJl7zaJcx0H7H-12" target="hXdqMKXLJl7zaJcx0H7H-19" edge="1">
          <mxGeometry relative="1" as="geometry" />
        </mxCell>
        <mxCell id="hXdqMKXLJl7zaJcx0H7H-21" value="False" style="edgeLabel;html=1;align=center;verticalAlign=middle;resizable=0;points=[];" parent="hXdqMKXLJl7zaJcx0H7H-20" vertex="1" connectable="0">
          <mxGeometry x="0.0387" relative="1" as="geometry">
            <mxPoint as="offset" />
          </mxGeometry>
        </mxCell>
        <mxCell id="hXdqMKXLJl7zaJcx0H7H-22" value="Print(matching_characters(guess, target_word))" style="rounded=0;whiteSpace=wrap;html=1;shape=ellipse;perimeter=ellipsePerimeter;" parent="1" vertex="1">
          <mxGeometry x="295" y="800" width="255" height="80" as="geometry" />
        </mxCell>
      </root>
    </mxGraphModel>
  </diagram>
</mxfile>
